<?xml version="1.0" standalone="no"?>
<!DOCTYPE svg PUBLIC "-//W3C//DTD SVG 20010904//EN"
 "http://www.w3.org/TR/2001/REC-SVG-20010904/DTD/svg10.dtd">
<svg version="1.0" xmlns="http://www.w3.org/2000/svg"
 width="5435.000000pt" height="5435.000000pt" viewBox="0 0 5435.000000 5435.000000"
 preserveAspectRatio="xMidYMid meet">
<metadata>
Created by potrace 1.11, written by Peter Selinger 2001-2013
</metadata>
<g transform="translate(0.000000,5435.000000) scale(0.100000,-0.100000)"
fill="#000000" stroke="none">
<path d="M26860 48249 c-2141 -94 -4216 -547 -6160 -1344 -757 -310 -1582
-718 -2296 -1135 -643 -376 -1321 -833 -1925 -1297 -2473 -1900 -4441 -4428
-5669 -7283 -818 -1901 -1308 -3935 -1445 -5995 -30 -462 -36 -665 -42 -1422
l-6 -773 -36 -6 c-501 -83 -887 -204 -1316 -414 -1009 -493 -1801 -1345 -2223
-2390 -398 -985 -433 -2116 -99 -3130 63 -192 127 -350 221 -545 441 -916
1163 -1647 2076 -2105 379 -190 803 -330 1224 -405 77 -14 144 -25 148 -25 4
0 8 -1900 8 -4222 0 -2746 4 -4279 10 -4383 55 -864 401 -1645 999 -2259 596
-609 1375 -980 2221 -1056 76 -6 1483 -10 4197 -10 l4082 0 210 -100 c1861
-885 3772 -1363 5836 -1460 461 -22 1236 -13 1725 20 1883 127 3785 627 5450
1431 l215 104 4245 5 c4653 6 4275 1 4580 61 563 110 1054 335 1520 695 138
106 457 421 561 554 443 562 678 1130 771 1860 9 72 12 1128 15 4441 l3 4346
43 7 c104 17 424 101 585 155 1140 382 2088 1204 2626 2280 631 1260 643 2751
32 4016 -497 1028 -1350 1827 -2407 2253 -236 96 -552 190 -791 238 l-88 17 0
576 c0 967 -25 1542 -96 2251 -459 4593 -2641 8832 -6129 11906 -2173 1915
-4802 3299 -7600 4003 -1237 310 -2444 485 -3745 541 -266 11 -1265 11 -1530
-1z m9780 -8662 c562 -67 983 -164 1439 -329 1626 -590 2931 -1874 3551 -3493
188 -490 305 -992 367 -1575 17 -156 18 -519 18 -6680 0 -6899 2 -6605 -46
-7170 -241 -2876 -1322 -5577 -3136 -7835 -344 -429 -601 -714 -1043 -1156
-462 -462 -724 -700 -1170 -1059 -1245 -1001 -2648 -1792 -4140 -2333 -1239
-449 -2549 -727 -3875 -822 -668 -48 -1432 -48 -2100 0 -2476 178 -4857 988
-6919 2355 -616 408 -1168 836 -1741 1350 -201 180 -827 806 -1006 1005 -889
990 -1583 1996 -2175 3150 -856 1671 -1383 3533 -1528 5405 -42 538 -41 332
-41 6775 0 5858 1 6190 18 6365 71 739 235 1394 507 2030 579 1353 1597 2485
2880 3202 871 487 1813 763 2835 831 28 2 3900 3 8605 3 8072 -1 8563 -2 8700
-19z m-26165 -11196 c620 -84 1158 -286 1670 -626 77 -51 182 -125 233 -165
l92 -73 0 -554 c0 -441 -3 -553 -12 -547 -7 4 -31 20 -53 34 -381 258 -835
435 -1295 507 -162 25 -594 25 -765 0 -547 -81 -1079 -301 -1570 -651 -235
-166 -514 -416 -554 -494 -60 -119 -39 -266 52 -360 51 -52 94 -76 167 -91 95
-20 203 13 272 82 272 271 634 522 983 680 324 147 627 221 955 234 610 24
1197 -209 1772 -701 l48 -41 0 -2087 0 -2087 -97 -76 c-480 -371 -1040 -626
-1638 -744 -282 -56 -397 -66 -765 -66 -368 0 -483 10 -765 66 -1154 229
-2143 961 -2704 2004 -307 570 -461 1191 -461 1855 0 587 115 1117 355 1640
568 1238 1766 2111 3105 2264 208 24 206 24 525 21 233 -3 334 -8 450 -24z
m35170 0 c449 -61 833 -177 1220 -366 1135 -558 1938 -1624 2149 -2855 45
-262 51 -340 51 -680 0 -340 -6 -418 -51 -680 -268 -1566 -1482 -2829 -3040
-3165 -306 -66 -446 -80 -829 -80 -374 0 -486 10 -770 66 -599 119 -1160 374
-1642 748 l-93 72 0 1992 0 1992 78 76 c357 349 854 639 1318 769 566 159
1107 108 1639 -154 317 -156 553 -327 876 -632 76 -72 109 -96 151 -110 153
-51 316 14 385 154 24 48 28 70 28 137 0 115 -27 166 -155 288 -636 611 -1315
949 -2044 1018 -173 16 -490 6 -666 -20 -508 -77 -993 -277 -1478 -607 -68
-46 -125 -84 -127 -84 -3 0 -5 283 -5 629 l0 629 118 89 c615 468 1291 725
2092 797 25 2 180 2 345 1 233 -3 334 -8 450 -24z"/>
<path d="M22863 34769 c-750 -48 -1520 -399 -2173 -991 -152 -138 -190 -201
-190 -319 0 -212 199 -356 407 -294 41 12 76 38 189 141 518 470 1095 757
1666 830 164 20 492 15 633 -11 245 -45 429 -106 660 -220 285 -140 548 -329
823 -588 106 -101 143 -130 187 -146 116 -43 245 -18 330 65 68 66 90 120 90
224 0 118 -21 155 -171 300 -288 279 -612 515 -932 678 -394 201 -755 303
-1177 332 -164 11 -164 11 -342 -1z"/>
<path d="M31983 34770 c-588 -40 -1189 -263 -1742 -648 -157 -109 -340 -260
-462 -381 -101 -100 -120 -124 -139 -176 -74 -202 75 -415 290 -415 102 0 155
28 278 143 376 355 850 635 1294 762 216 63 369 86 593 92 408 11 721 -60
1094 -247 288 -144 510 -304 828 -597 111 -102 142 -125 185 -138 150 -44 301
14 373 146 40 75 46 179 14 264 -18 50 -38 75 -118 154 -756 738 -1620 1099
-2488 1041z"/>
<path d="M23485 29849 c-697 -52 -1385 -270 -1978 -626 -204 -123 -430 -284
-597 -427 l-65 -56 -1385 0 c-861 0 -1419 -4 -1475 -10 -1031 -115 -1827 -959
-1871 -1985 l-6 -130 311 -2025 c194 -1266 314 -2079 321 -2170 67 -919 696
-1671 1586 -1896 262 -66 194 -64 2320 -64 l1922 0 55 -92 c285 -478 751 -825
1286 -958 275 -69 151 -65 2156 -65 l1810 0 48 22 c78 36 124 79 157 146 40
83 47 141 26 220 -25 92 -76 154 -160 197 l-69 35 -1836 5 c-2047 6 -1860 0
-2090 76 -519 172 -905 633 -985 1177 -117 782 385 1496 1173 1670 95 21 107
21 1857 24 l1761 4 22 -138 c23 -144 34 -238 51 -438 21 -232 87 -469 196
-695 315 -653 926 -1088 1654 -1175 95 -12 577 -14 2838 -15 2752 0 2806 1
3001 36 713 131 1316 634 1578 1319 70 182 133 484 133 636 0 38 143 795 389
2067 214 1104 395 2035 401 2068 7 44 7 101 0 200 -69 912 -697 1664 -1575
1889 -248 63 -278 65 -1278 65 l-902 1 -26 22 c-542 464 -1154 784 -1825 956
-851 217 -1725 183 -2558 -99 -654 -222 -1217 -572 -1712 -1065 -206 -205
-349 -371 -494 -576 -51 -71 -94 -129 -96 -129 -2 0 -22 28 -45 63 -195 289
-524 652 -804 888 -735 619 -1620 977 -2590 1049 -160 11 -468 11 -630 -1z
m705 -629 c1084 -108 2063 -664 2721 -1543 86 -115 204 -295 266 -407 l31 -55
-59 -143 c-155 -379 -264 -811 -311 -1237 -18 -161 -18 -758 0 -920 47 -421
169 -902 320 -1257 l50 -118 -429 0 c-236 0 -429 3 -429 6 0 4 133 691 295
1527 327 1686 313 1591 280 1842 -79 600 -414 1137 -922 1477 -180 121 -465
244 -678 294 -216 50 -122 47 -1820 53 l-1590 6 175 87 c482 240 961 367 1515
402 99 6 472 -3 585 -14z m7530 -5 c467 -52 878 -173 1300 -383 l175 -87 -948
-3 c-521 -1 -1373 -1 -1895 0 l-947 3 175 87 c479 239 962 367 1515 402 120 8
483 -4 625 -19z m-11483 -1128 c-476 -624 -786 -1399 -883 -2207 -22 -182 -30
-646 -15 -836 63 -791 316 -1522 752 -2171 514 -767 1287 -1378 2142 -1694
111 -42 117 -45 117 -71 l0 -28 -1778 0 c-1211 0 -1813 3 -1888 11 -545 54
-1017 412 -1224 927 -55 137 -89 292 -99 459 -6 92 -114 819 -321 2168 l-312
2030 11 110 c51 514 359 957 826 1185 153 75 312 121 500 143 17 2 518 5 1114
6 l1083 1 -25 -33z m4883 10 c659 -135 1153 -691 1196 -1344 6 -85 -3 -134
-295 -1638 -166 -852 -303 -1556 -306 -1562 -3 -10 -154 -13 -707 -13 -390 0
-745 -5 -798 -10 -396 -41 -789 -203 -1100 -453 -247 -198 -461 -471 -591
-754 -52 -113 -123 -324 -146 -435 -16 -80 -19 -87 -38 -82 -40 12 -367 174
-462 230 -708 415 -1271 1044 -1597 1784 -232 528 -338 1070 -323 1655 15 595
145 1114 411 1640 171 337 382 640 631 903 l97 102 1972 -3 c1826 -3 1977 -4
2056 -20z m8988 -72 c502 -524 862 -1235 991 -1950 47 -265 56 -376 55 -705 0
-400 -25 -607 -114 -955 -109 -429 -270 -789 -525 -1175 -140 -211 -290 -395
-475 -581 -310 -311 -616 -534 -1001 -729 -554 -280 -1108 -412 -1739 -412
-631 0 -1185 132 -1739 412 -413 209 -828 522 -1101 830 l-59 67 -295 1925
-295 1924 10 105 c57 619 508 1143 1111 1293 57 14 135 30 173 35 39 5 1160 9
2491 10 l2422 1 90 -95z m2114 67 c195 -44 377 -123 543 -235 108 -74 291
-253 364 -357 157 -225 253 -490 267 -740 l6 -105 -392 -2015 c-338 -1738
-393 -2034 -400 -2150 -34 -549 -335 -1009 -820 -1253 -109 -55 -265 -108
-395 -133 -83 -17 -189 -18 -1440 -21 l-1350 -2 150 53 c786 279 1428 716
1954 1330 580 677 933 1490 1048 2411 22 178 25 775 5 960 -91 820 -396 1598
-879 2238 l-36 48 639 -4 c613 -3 643 -4 736 -25z m-7367 -6475 c302 -197 606
-346 990 -484 l150 -54 -125 6 c-351 15 -642 127 -911 351 -75 63 -166 159
-225 239 -33 46 -48 53 121 -58z"/>
<path d="M23750 27149 c-951 -101 -1668 -929 -1627 -1879 39 -882 685 -1598
1561 -1726 166 -24 459 -15 622 20 732 156 1281 721 1420 1461 15 80 19 146
19 325 -1 205 -3 236 -28 351 -81 382 -250 687 -530 956 -379 363 -918 548
-1437 492z"/>
<path d="M30965 27149 c-128 -13 -241 -38 -382 -84 -370 -121 -683 -352 -918
-680 -82 -113 -194 -337 -239 -476 -309 -953 204 -1973 1150 -2288 223 -75
296 -85 574 -85 274 0 343 10 565 81 362 116 694 360 918 673 132 186 245 446
296 680 91 424 17 893 -201 1273 -356 622 -1054 980 -1763 906z"/>
<path d="M33623 15850 c-81 -17 -117 -46 -301 -242 -499 -534 -1144 -1065
-1742 -1435 -702 -434 -1373 -690 -2050 -780 -193 -26 -662 -26 -845 0 -345
49 -615 127 -940 273 -118 53 -136 58 -200 58 -125 0 -222 -60 -277 -171 -62
-127 -38 -264 64 -359 122 -114 652 -306 1058 -383 254 -48 359 -56 715 -56
363 0 466 8 755 61 1062 194 2181 788 3255 1728 314 275 747 708 827 827 31
47 58 126 58 173 0 55 -31 142 -69 192 -65 87 -200 137 -308 114z"/>
</g>
</svg>
